<?xml version="1.0" encoding="UTF-8"?>
<svg id="_레이어_1" data-name="레이어 1" xmlns="http://www.w3.org/2000/svg" viewBox="0 0 3301.79 991.43">
  <defs>
    <style>
      .cls-1 {
        fill: #201512;
        stroke-width: 0px;
      }
    </style>
  </defs>
  <path class="cls-1" d="M609.1,538.22l137.22,188.04h-54.98l-112.73-154.31-41.58,45.74v108.57h-43.43v-337.73h43.43v164.01l147.38-164.47h58.67l-133.98,150.15Z"/>
  <path class="cls-1" d="M965.29,388.07v338.19h-43.43v-338.19h43.43Z"/>
  <path class="cls-1" d="M1264.21,692.07c44.35.46,70.69-21.71,70.69-56.36,0-81.77-172.33-46.66-172.33-164.94,0-54.98,46.2-87.32,107.65-86.4,45.28.46,84.55,24.95,102.57,75.77l-39.73,14.32c-10.63-34.19-35.57-51.74-63.29-52.21-37.42,0-63.29,18.48-63.29,48.97,0,80.39,171.87,48.51,171.87,164.94,0,56.36-44.35,95.17-114.58,93.79-49.43-.46-88.24-28.64-115.96-77.15l36.5-20.33c18.94,37.42,47.59,59.14,79.93,59.6Z"/>
  <path class="cls-1" d="M1888.83,557.16c0,101.64-69.3,172.79-167.71,172.79s-167.71-71.15-167.71-172.79,69.3-172.79,167.71-172.79,167.71,71.15,167.71,172.79ZM1844.94,557.16c0-79.93-50.36-134.44-123.82-134.44s-123.82,54.52-123.82,134.44,49.9,134.44,123.82,134.44,123.82-54.52,123.82-134.44Z"/>
  <path class="cls-1" d="M2333.73,726.25h-46.66l-174.18-262.42v262.42h-43.43v-338.19h46.2l174.18,261.96v-261.96h43.89v338.19Z"/>
  <path class="cls-1" d="M2816.52,726.25h-46.66l-35.11-93.79h-143.22l-36.04,93.79h-46.66l128.9-338.19h51.75l127.05,338.19ZM2719.96,594.12l-56.36-150.61-57.75,150.61h114.12Z"/>
</svg>