<?xml version="1.0" encoding="UTF-8"?>
<svg id="_레이어_1" data-name="레이어 1" xmlns="http://www.w3.org/2000/svg" viewBox="0 0 2579.56 475.3">
  <defs>
    <style>
      .cls-1 {
        fill: #231815;
        stroke-width: 0px;
      }
    </style>
  </defs>
  <path class="cls-1" d="M0,9.8h191.44v20.73c-53.84,5.15-63.27,9.8-63.27,71.47v119.9c14.13-1.9,30.35-13.1,51.16-33.08,40.71-38.86,84.71-84.7,114.9-119.34,20.24-23.42,17.77-32.77-12.71-36.97l-18.47-1.97V9.8h172.49v20.73c-51.74,6.3-71.33,9.8-117.73,57.97-22.13,21.81-73.08,71.74-115.36,113.95,51.56,62.75,125.1,149.7,164.65,193.49,33.94,37.62,43.04,43.09,85.05,48.12v20.73h-116.91c-49.49-57.12-107.07-128.04-168.25-201.61-15.85-19.85-27.62-21.76-38.82-20.8v131.36c0,60.65,6.05,65.04,63.39,70.32v20.73H0v-20.73c56.52-5.03,62.37-9.67,62.37-70.32V102c0-62.24-5.28-67.14-62.37-71.47V9.8Z"/>
  <path class="cls-1" d="M484.39,464.8v-20.73c56.64-6.05,62.37-9.1,62.37-68.47V99.71c0-59.95-5.85-63.25-62.37-69.17V9.8h192.76v20.73c-57.09,6.05-62.94,9.23-62.94,69.17v275.88c0,59.82,5.73,62.3,62.94,68.47v20.73h-192.76Z"/>
  <path class="cls-1" d="M981.29,117.84c-12.28-45.95-31.88-92.46-97.43-92.46-52.08,0-72.37,37.88-72.37,74.79,0,46.54,29.92,70.78,88.65,101.01,82.36,42.27,120.78,75.22,120.78,142.23,0,75.14-64.58,131.89-156.65,131.89-42.5,0-79.53-11.9-108.99-22.85-5.35-18.97-14.38-71.11-19.28-108.02l22.71-5.73c14,46.4,46.31,110.07,118.36,110.07,49.01,0,78.93-33.49,78.93-78.86,0-51.51-28.07-73.58-89.17-106.8-73.37-39.77-115.81-73.63-115.81-140.11S803.84,0,898.51,0c40.84,0,78.96,10.5,93.79,13.17,2.8,25.33,5.98,54.84,11.58,100.09l-22.58,4.58Z"/>
  <path class="cls-1" d="M1330.22,0c121.46,0,228.31,92.2,228.31,231.25,0,150.25-102.96,244.05-232.39,244.05s-234.04-102.2-234.04-234.43c0-124.29,88.27-240.87,238.11-240.87ZM1316.85,26.78c-77.14,0-145.14,66.56-145.14,196.2s66.99,224.96,165.51,224.96c81.42,0,142.98-63.25,142.98-197.09,0-145.49-73.54-224.07-163.35-224.07Z"/>
  <path class="cls-1" d="M2109.83,30.53c-44.42,5.03-58.87,12.4-60.97,44.48-.95,23.28-2.48,51.67-2.48,116.02v280.32h-28.87l-298.21-363.2v171.98c0,62.62,1.97,93.37,3.5,113.67,1.65,34.82,18.65,46.33,69.3,50.27v20.73h-170.73v-20.73c42.77-3.5,59.7-14,62.75-48.05,2.23-22.9,3.63-53.27,3.63-116.47V103.32c0-20.23-1.4-32.19-14.13-48.09-13.17-17.5-28.25-21.32-61.67-24.7V9.8h110.67l291.38,344.54v-163.31c0-64.34-1.27-93.18-3.37-115.07-2.1-31.25-17.32-41.93-73.7-45.43V9.8h172.9v20.73Z"/>
  <path class="cls-1" d="M2401.25,464.8v-20.73c45.25-5.73,49.84-12.85,40.04-40.08-8.72-26.17-22.22-60.54-36.16-101.74h-148.55c-10.57,29.74-20.94,56.91-30.24,84.35-15.27,45.25-4.21,50.85,52.81,57.47v20.73h-163.72v-20.73c44.1-5.6,55.3-10.75,79.67-73L2340.12,4.58l24.42-4.58c44.23,120.08,92.4,250.99,136.75,371.33,23.03,61.66,29.33,67.13,78.27,72.73v20.73h-178.32ZM2332.76,98.63c-22.02,58.44-45.07,119.11-65.44,173.65h127.37l-61.94-173.65Z"/>
</svg>